<?xml version="1.0" encoding="iso-8859-1"?>
<!-- Generator: Adobe Illustrator 19.0.0, SVG Export Plug-In . SVG Version: 6.00 Build 0)  -->
<svg xmlns="http://www.w3.org/2000/svg" xmlns:xlink="http://www.w3.org/1999/xlink" version="1.1" id="Layer_1" x="0px" y="0px" viewBox="0 0 512 512" style="enable-background:new 0 0 512 512;" xml:space="preserve">
<circle style="fill:#FFE670;" cx="256" cy="256" r="256"/>
<path style="fill:#FDC000;" d="M512,256c0-29.48-4.999-57.789-14.169-84.145l-78.843-78.843c0,0-180.425-13.565-267.114,73.124  c-67.994,67.994-36.52,155.858-19.783,190.594l-50.669,50.669c1.614,1.003,52.786,52.329,90.829,90.573  C198.494,507.053,226.668,512,256,512C397.385,512,512,397.385,512,256z"/>
<rect x="103.096" y="355.075" transform="matrix(-0.7071 -0.7071 0.7071 -0.7071 -73.5706 754.5475)" style="fill:#00A753;" width="32.781" height="74.871"/>
<rect x="87.844" y="390.12" transform="matrix(-0.7071 0.7071 -0.7071 -0.7071 495.5187 591.377)" style="fill:#007539;" width="74.874" height="16.387"/>
<path style="fill:#00C379;" d="M418.988,93.012c0,0-180.425-13.565-267.114,73.124s-11.692,205.682-11.692,205.682  s118.993,74.997,205.683-11.692S418.988,93.012,418.988,93.012z"/>
<path style="fill:#00A753;" d="M345.861,360.13c-86.684,86.683-205.677,11.686-205.677,11.686L418.986,93.014  C418.986,93.014,432.552,273.44,345.861,360.13z"/>
<g>
</g>
<g>
</g>
<g>
</g>
<g>
</g>
<g>
</g>
<g>
</g>
<g>
</g>
<g>
</g>
<g>
</g>
<g>
</g>
<g>
</g>
<g>
</g>
<g>
</g>
<g>
</g>
<g>
</g>
</svg>
