<?xml version="1.0" encoding="iso-8859-1"?>
<!-- Generator: Adobe Illustrator 19.0.0, SVG Export Plug-In . SVG Version: 6.00 Build 0)  -->
<svg xmlns="http://www.w3.org/2000/svg" xmlns:xlink="http://www.w3.org/1999/xlink" version="1.1" id="Layer_1" x="0px" y="0px" viewBox="0 0 512 512" style="enable-background:new 0 0 512 512;" xml:space="preserve">
<circle style="fill:#FFDBA9;" cx="256" cy="256" r="256"/>
<path style="fill:#FFC473;" d="M512,256c0-23.132-3.086-45.54-8.838-66.854l-89.658-89.658c0,0-70.676-25.373-119.624-1.509  c-18.876,9.203-28.813,22.944-33.9,36.357c-0.062-0.054-0.125-0.108-0.188-0.162l-19.344-19.344  c-5.506-6.359-12.766-12.189-22.328-16.851c-48.948-23.864-119.624,1.509-119.624,1.509s15.807,47.864,48.44,78.286l98.88,98.983  v65.651c-11.422,5.085-20.629,13.903-25.872,24.799c-0.024,0.051-0.045,0.103-0.069,0.154c-0.06-0.05-0.117-0.104-0.178-0.154  c-8.71-7.16-19.87-11.46-32.03-11.46c-18.924,0-35.408,10.417-44.056,25.822h-16.028c-16.912,0-30.748,13.837-30.748,30.748l0,0  c0,10.091,4.929,19.086,12.496,24.701l59.882,59.882c27.101,9.766,56.32,15.1,86.787,15.1C397.385,512,512,397.385,512,256z"/>
<rect x="245.82" y="157.01" style="fill:#008C4A;" width="20.369" height="220.88"/>
<rect x="256" y="157.01" style="fill:#007539;" width="10.184" height="220.88"/>
<path style="fill:#00A753;" d="M413.504,99.488c0,0-70.676-25.373-119.624-1.509s-37.802,78.26-37.802,78.26  s35.989,42.284,84.937,18.42C389.964,170.795,413.504,99.488,413.504,99.488z"/>
<path style="fill:#008C4A;" d="M341.013,194.66c-48.945,23.863-84.934-18.422-84.934-18.422l157.424-76.75  C413.503,99.488,389.962,170.796,341.013,194.66z"/>
<path style="fill:#00C379;" d="M98.496,99.488c0,0,70.676-25.373,119.624-1.509s37.802,78.26,37.802,78.26  s-35.989,42.284-84.937,18.42C122.036,170.795,98.496,99.488,98.496,99.488z"/>
<path style="fill:#00A753;" d="M170.987,194.66c48.945,23.863,84.934-18.422,84.934-18.422L98.497,99.488  C98.497,99.488,122.038,170.796,170.987,194.66z"/>
<path style="fill:#715539;" d="M384.417,381.569h-15.356c-3.091-5.507-7.18-10.38-12.031-14.363c-8.71-7.16-19.87-11.46-32.03-11.46  c-4.883,0-9.599,0.707-14.066,2c-9.72-12.207-25.145-20.1-42.518-20.1c-21.532,0-40.08,12.12-48.473,29.56  c-0.024,0.051-0.045,0.103-0.069,0.154c-0.06-0.05-0.117-0.104-0.178-0.154c-8.71-7.16-19.87-11.46-32.03-11.46  c-18.924,0-35.408,10.417-44.056,25.822h-16.028c-16.912,0-30.748,13.837-30.748,30.748l0,0c0,16.912,13.837,30.748,30.748,30.748  h256.834c16.912,0,30.748-13.837,30.748-30.748l0,0C415.165,395.406,401.329,381.569,384.417,381.569z"/>
<path style="fill:#5A422D;" d="M384.417,381.569h-15.356c-3.091-5.507-7.18-10.38-12.031-14.363c-8.71-7.16-19.87-11.46-32.03-11.46  c-4.883,0-9.599,0.707-14.066,2c-9.72-12.207-25.145-20.1-42.518-20.1c-4.276,0-8.432,0.485-12.417,1.388v104.031h128.417  c16.911,0,30.748-13.837,30.748-30.748l0,0C415.165,395.406,401.329,381.569,384.417,381.569z"/>
<g>
</g>
<g>
</g>
<g>
</g>
<g>
</g>
<g>
</g>
<g>
</g>
<g>
</g>
<g>
</g>
<g>
</g>
<g>
</g>
<g>
</g>
<g>
</g>
<g>
</g>
<g>
</g>
<g>
</g>
</svg>
