<?xml version="1.0" encoding="iso-8859-1"?>
<!-- Generator: Adobe Illustrator 19.0.0, SVG Export Plug-In . SVG Version: 6.00 Build 0)  -->
<svg xmlns="http://www.w3.org/2000/svg" xmlns:xlink="http://www.w3.org/1999/xlink" version="1.1" id="Layer_1" x="0px" y="0px" viewBox="0 0 512 512" style="enable-background:new 0 0 512 512;" xml:space="preserve">
<circle style="fill:#FFE670;" cx="256" cy="256" r="256"/>
<path style="fill:#FDC000;" d="M512,256c0-7.426-0.335-14.772-0.954-22.037L370.011,92.928  c-9.589-11.101-23.234-18.601-38.644-20.162L304.86,46.434C292.958,32.841,275.487,24.249,256,24.249  c-30.212,0-55.602,20.634-62.855,48.577c-2.134-0.234-4.3-0.364-6.496-0.364c-32.589,0-59.007,26.419-59.007,59.007  c0,16.808,7.039,31.962,18.315,42.709c-14.283,11.238-23.466,28.665-23.466,48.249c0,18.506,8.202,35.085,21.155,46.338  l82.783,83.008l-9.045,135.977l23.813,23.813c4.9,0.279,9.833,0.436,14.803,0.436C397.385,512,512,397.385,512,256z"/>
<polygon style="fill:#715539;" points="279.599,262 232.401,262 217.384,487.751 294.616,487.751 "/>
<polygon style="fill:#59412C;" points="294.616,487.751 279.599,262 256,262 256,487.751 "/>
<path style="fill:#00C379;" d="M366.043,174.179c11.276-10.747,18.315-25.901,18.315-42.709c0-32.589-26.419-59.007-59.008-59.007  c-2.196,0-4.362,0.13-6.496,0.363C311.602,44.883,286.212,24.249,256,24.249s-55.602,20.634-62.855,48.577  c-2.134-0.234-4.3-0.363-6.496-0.363c-32.589,0-59.007,26.418-59.007,59.007c0,16.808,7.039,31.962,18.315,42.709  c-14.283,11.238-23.466,28.665-23.466,48.249c0,33.896,27.479,61.375,61.375,61.375c8.921,0,17.389-1.919,25.036-5.341  c10.189,15.137,27.479,25.095,47.097,25.095s36.909-9.959,47.097-25.095c7.648,3.422,16.116,5.341,25.036,5.341  c33.897,0,61.375-27.479,61.375-61.375C389.509,202.845,380.326,185.417,366.043,174.179z"/>
<path style="fill:#00A753;" d="M389.504,222.432c0,33.889-27.478,61.367-61.367,61.367c-8.928,0-17.393-1.912-25.042-5.334  c-10.186,15.138-27.478,25.092-47.095,25.092V24.249c30.216,0,55.6,20.634,62.857,48.574c2.134-0.231,4.298-0.362,6.492-0.362  c32.591,0,59.012,26.421,59.012,59.012c0,16.809-7.046,31.957-18.319,42.706C380.325,185.413,389.504,202.845,389.504,222.432z"/>
<g>
</g>
<g>
</g>
<g>
</g>
<g>
</g>
<g>
</g>
<g>
</g>
<g>
</g>
<g>
</g>
<g>
</g>
<g>
</g>
<g>
</g>
<g>
</g>
<g>
</g>
<g>
</g>
<g>
</g>
</svg>
